<svg xmlns="http://www.w3.org/2000/svg" xmlns:xlink="http://www.w3.org/1999/xlink" width="1200" zoomAndPan="magnify" viewBox="0 0 900 540.000001" height="720" preserveAspectRatio="xMidYMid meet" version="1.0"><defs><g/></defs><path fill="#0000ff" d="M 164.144531 310.195312 L 166.140625 312.171875 L 166.34375 312.375 C 172.558594 318.8125 172.492188 329.1875 166.140625 335.539062 C 159.789062 341.890625 149.417969 341.957031 142.976562 335.738281 L 142.777344 335.539062 L 140.78125 333.5625 L 135.339844 328.097656 C 128.917969 321.679688 128.917969 311.175781 135.339844 304.734375 C 141.757812 298.316406 152.285156 298.316406 158.703125 304.734375 Z M 274.34375 219.804688 L 276.277344 217.875 L 278.496094 215.652344 L 298.863281 195.289062 C 305.28125 188.871094 305.28125 178.363281 298.863281 171.921875 C 292.421875 165.503906 281.917969 165.503906 275.5 171.921875 L 255.132812 192.289062 L 252.914062 194.511719 L 250.980469 196.441406 L 239.296875 208.125 C 232.878906 214.542969 232.878906 225.046875 239.296875 231.488281 L 250.980469 243.171875 L 253.066406 245.234375 L 275.65625 267.820312 C 282.074219 274.242188 292.578125 274.242188 299.019531 267.820312 C 305.4375 261.402344 305.4375 250.875 299.019531 244.457031 L 276.433594 221.871094 Z M 136.269531 172.078125 L 136.269531 172.058594 C 142.6875 165.636719 153.214844 165.636719 159.636719 172.058594 L 298.707031 311.152344 C 305.148438 317.570312 305.148438 328.097656 298.707031 334.515625 C 292.289062 340.933594 281.785156 340.933594 275.34375 334.515625 L 136.269531 195.421875 C 129.851562 189.003906 129.851562 178.496094 136.269531 172.078125 Z M 136.070312 238.660156 C 142.488281 232.242188 152.996094 232.242188 159.433594 238.660156 L 232.125 311.351562 C 238.542969 317.769531 238.542969 328.296875 232.125 334.714844 C 225.683594 341.132812 215.179688 341.132812 208.761719 334.714844 L 151.90625 277.859375 L 136.070312 262.027344 C 129.652344 255.605469 129.652344 245.082031 136.070312 238.660156 Z M 136.070312 238.660156 " fill-opacity="1" fill-rule="evenodd"/><g fill="#0000ff" fill-opacity="1"><g transform="translate(333.942086, 310.652428)"><g><path d="M 74.703125 -91.03125 L 74.703125 -70.453125 L 50.53125 -70.453125 L 50.53125 0 L 28.546875 0 L 28.546875 -70.453125 L 4.25 -70.453125 L 4.25 -91.03125 Z M 74.703125 -91.03125 "/></g></g></g><g fill="#0000ff" fill-opacity="1"><g transform="translate(414.552448, 310.652428)"><g><path d="M 35.484375 -70.71875 C 38.910156 -70.71875 42.207031 -70.050781 45.375 -68.71875 C 48.550781 -67.394531 51.253906 -65.273438 53.484375 -62.359375 L 53.484375 -69.5625 L 73.671875 -69.5625 L 73.671875 0 L 53.484375 0 L 53.484375 -6.9375 C 51.085938 -4.03125 48.28125 -1.992188 45.0625 -0.828125 C 41.851562 0.328125 38.578125 0.90625 35.234375 0.90625 C 27.941406 0.90625 21.8125 -0.804688 16.84375 -4.234375 C 11.875 -7.671875 8.125 -12.195312 5.59375 -17.8125 C 3.0625 -23.425781 1.796875 -29.40625 1.796875 -35.75 C 1.796875 -42.09375 3.035156 -47.921875 5.515625 -53.234375 C 8.003906 -58.546875 11.734375 -62.785156 16.703125 -65.953125 C 21.679688 -69.128906 27.941406 -70.71875 35.484375 -70.71875 Z M 37.671875 -18.515625 C 40.585938 -18.515625 43.242188 -19.265625 45.640625 -20.765625 C 48.046875 -22.265625 49.953125 -24.28125 51.359375 -26.8125 C 52.773438 -29.34375 53.484375 -32.148438 53.484375 -35.234375 C 53.484375 -38.316406 52.773438 -41.144531 51.359375 -43.71875 C 49.953125 -46.289062 48.046875 -48.328125 45.640625 -49.828125 C 43.242188 -51.328125 40.585938 -52.078125 37.671875 -52.078125 C 34.242188 -52.078125 31.375 -51.257812 29.0625 -49.625 C 26.75 -48 25.007812 -45.898438 23.84375 -43.328125 C 22.6875 -40.753906 22.109375 -38.054688 22.109375 -35.234375 C 22.109375 -32.484375 22.6875 -29.820312 23.84375 -27.25 C 25.007812 -24.6875 26.75 -22.585938 29.0625 -20.953125 C 31.375 -19.328125 34.242188 -18.515625 37.671875 -18.515625 Z M 37.671875 -18.515625 "/></g></g></g><g fill="#0000ff" fill-opacity="1"><g transform="translate(497.219846, 310.652428)"><g><path d="M 2.578125 -47.1875 C 2.578125 -52.84375 3.882812 -57.425781 6.5 -60.9375 C 9.113281 -64.457031 12.601562 -67.050781 16.96875 -68.71875 C 21.34375 -70.394531 26.101562 -71.234375 31.25 -71.234375 C 36.21875 -71.234375 40.820312 -70.375 45.0625 -68.65625 C 49.3125 -66.945312 52.742188 -64.332031 55.359375 -60.8125 C 57.972656 -57.300781 59.28125 -52.847656 59.28125 -47.453125 L 39.859375 -47.453125 C 39.859375 -49.242188 39.320312 -50.546875 38.25 -51.359375 C 37.175781 -52.179688 35.910156 -52.695312 34.453125 -52.90625 C 32.992188 -53.125 31.539062 -53.234375 30.09375 -53.234375 C 28.632812 -53.234375 27.085938 -52.910156 25.453125 -52.265625 C 23.828125 -51.617188 23.015625 -50.351562 23.015625 -48.46875 C 23.015625 -47.269531 23.503906 -46.410156 24.484375 -45.890625 C 25.472656 -45.378906 26.628906 -45.0625 27.953125 -44.9375 C 29.285156 -44.8125 30.425781 -44.703125 31.375 -44.609375 C 36.257812 -44.523438 40.929688 -43.710938 45.390625 -42.171875 C 49.847656 -40.628906 53.507812 -38.1875 56.375 -34.84375 C 59.25 -31.5 60.6875 -27.082031 60.6875 -21.59375 C 60.6875 -15.769531 59.289062 -11.144531 56.5 -7.71875 C 53.71875 -4.289062 50.054688 -1.847656 45.515625 -0.390625 C 40.972656 1.066406 36.128906 1.796875 30.984375 1.796875 C 25.503906 1.796875 20.554688 0.941406 16.140625 -0.765625 C 11.722656 -2.484375 8.207031 -5.207031 5.59375 -8.9375 C 2.976562 -12.664062 1.628906 -17.488281 1.546875 -23.40625 L 21.859375 -23.40625 C 21.941406 -21 23.054688 -19.300781 25.203125 -18.3125 C 27.347656 -17.332031 29.617188 -16.84375 32.015625 -16.84375 C 34.503906 -16.84375 36.519531 -17.269531 38.0625 -18.125 C 39.601562 -18.988281 40.375 -19.976562 40.375 -21.09375 C 40.375 -22.800781 39.6875 -23.929688 38.3125 -24.484375 C 36.945312 -25.046875 35.382812 -25.367188 33.625 -25.453125 C 31.863281 -25.546875 30.425781 -25.632812 29.3125 -25.71875 C 24.945312 -26.144531 20.726562 -27.066406 16.65625 -28.484375 C 12.582031 -29.898438 9.21875 -32.109375 6.5625 -35.109375 C 3.90625 -38.109375 2.578125 -42.132812 2.578125 -47.1875 Z M 2.578125 -47.1875 "/></g></g></g><g fill="#0000ff" fill-opacity="1"><g transform="translate(563.430902, 310.652428)"><g><path d="M 41.78125 -34.96875 L 67.625 -0.90625 L 67.625 0 L 43.96875 0 L 24.046875 -27.125 L 24.046875 0 L 3.859375 0 L 3.859375 -90 L 24.046875 -90 L 24.046875 -42.171875 L 43.203125 -69.5625 L 65.3125 -69.5625 L 65.3125 -68.53125 Z M 41.78125 -34.96875 "/></g></g></g><g fill="#0000ff" fill-opacity="1"><g transform="translate(635.298834, 310.652428)"><g><path d="M 2.828125 -84.859375 C 2.828125 -88.804688 4.09375 -91.765625 6.625 -93.734375 C 9.15625 -95.703125 11.875 -96.6875 14.78125 -96.6875 C 17.875 -96.6875 20.703125 -95.722656 23.265625 -93.796875 C 25.835938 -91.867188 27.125 -88.890625 27.125 -84.859375 C 27.125 -81.085938 25.878906 -78.257812 23.390625 -76.375 C 20.910156 -74.488281 18.171875 -73.546875 15.171875 -73.546875 C 12.085938 -73.546875 9.257812 -74.488281 6.6875 -76.375 C 4.113281 -78.257812 2.828125 -81.085938 2.828125 -84.859375 Z M 4.75 -69.5625 L 4.75 0 L 25.328125 0 L 25.328125 -69.5625 Z M 4.75 -69.5625 "/></g></g></g><g fill="#0000ff" fill-opacity="1"><g transform="translate(669.754295, 310.652428)"><g><path d="M 10.28125 -68.796875 C 9.9375 -74.535156 10.898438 -79.117188 13.171875 -82.546875 C 15.453125 -85.972656 18.539062 -88.4375 22.4375 -89.9375 C 26.332031 -91.4375 30.554688 -92.1875 35.109375 -92.1875 C 38.703125 -92.1875 42.210938 -91.800781 45.640625 -91.03125 L 45 -75.859375 C 43.195312 -76.367188 41.269531 -76.625 39.21875 -76.625 C 36.8125 -76.625 34.726562 -76.066406 32.96875 -74.953125 C 31.21875 -73.847656 30.382812 -71.796875 30.46875 -68.796875 L 44.875 -68.796875 L 44.875 -51.171875 L 30.21875 -51.171875 L 30.21875 0 L 10.03125 0 L 10.03125 -51.171875 L -0.390625 -51.171875 L -0.390625 -68.796875 Z M 10.28125 -68.796875 "/></g></g></g><g fill="#0000ff" fill-opacity="1"><g transform="translate(721.308929, 310.652428)"><g><path d="M 68.53125 -66.34375 C 62.789062 -51.851562 57.066406 -37.410156 51.359375 -23.015625 C 45.660156 -8.617188 39.984375 5.820312 34.328125 20.3125 L 13.375 20.3125 L 13.375 17.234375 L 22.375 -5.65625 L -0.765625 -66.34375 L -0.765625 -69.5625 L 20.3125 -69.5625 L 28.9375 -47.3125 L 33.8125 -29.703125 L 38.953125 -47.3125 L 47.578125 -69.5625 L 68.53125 -69.5625 Z M 68.53125 -66.34375 "/></g></g></g></svg>